<svg width="120" height="100" viewBox="0 0 120 100" xmlns="http://www.w3.org/2000/svg">
  <!-- Case Body -->
  <rect x="10" y="30" width="100" height="60" rx="8" fill="url(#epicGradient)" stroke="#6A1B9A" stroke-width="2"/>
  
  <!-- Case Lid -->
  <rect x="10" y="10" width="100" height="25" rx="8" fill="url(#epicLidGradient)" stroke="#6A1B9A" stroke-width="2"/>
  
  <!-- Lock -->
  <rect x="55" y="5" width="10" height="15" rx="2" fill="url(#epicLockGradient)" stroke="#6A1B9A" stroke-width="1"/>
  
  <!-- Shine effect -->
  <rect x="10" y="30" width="100" height="60" rx="8" fill="url(#shineGradient)" opacity="0.3"/>
  
  <!-- Sparkle effects -->
  <circle cx="20" cy="40" r="2" fill="white" opacity="0.9"/>
  <circle cx="100" cy="50" r="1.5" fill="white" opacity="0.7"/>
  <circle cx="30" cy="70" r="1" fill="white" opacity="0.8"/>
  <circle cx="90" cy="35" r="1.5" fill="white" opacity="0.6"/>
  <circle cx="40" cy="80" r="1" fill="white" opacity="0.7"/>
  
  <!-- Glow effect -->
  <rect x="8" y="28" width="104" height="64" rx="10" fill="none" stroke="url(#epicGlow)" stroke-width="2" opacity="0.5"/>
  
  <!-- Gradients -->
  <defs>
    <linearGradient id="epicGradient" x1="0%" y1="0%" x2="100%" y2="100%">
      <stop offset="0%" style="stop-color:#9C27B0;stop-opacity:1" />
      <stop offset="100%" style="stop-color:#7B1FA2;stop-opacity:1" />
    </linearGradient>
    <linearGradient id="epicLidGradient" x1="0%" y1="0%" x2="100%" y2="100%">
      <stop offset="0%" style="stop-color:#BA68C8;stop-opacity:1" />
      <stop offset="100%" style="stop-color:#9C27B0;stop-opacity:1" />
    </linearGradient>
    <linearGradient id="epicLockGradient" x1="0%" y1="0%" x2="100%" y2="100%">
      <stop offset="0%" style="stop-color:#9C27B0;stop-opacity:1" />
      <stop offset="100%" style="stop-color:#7B1FA2;stop-opacity:1" />
    </linearGradient>
    <linearGradient id="shineGradient" x1="0%" y1="0%" x2="100%" y2="0%">
      <stop offset="0%" style="stop-color:transparent;stop-opacity:1" />
      <stop offset="50%" style="stop-color:white;stop-opacity:0.5" />
      <stop offset="100%" style="stop-color:transparent;stop-opacity:1" />
    </linearGradient>
    <radialGradient id="epicGlow" cx="50%" cy="50%" r="50%">
      <stop offset="0%" style="stop-color:#9C27B0;stop-opacity:0.8" />
      <stop offset="100%" style="stop-color:#9C27B0;stop-opacity:0" />
    </radialGradient>
  </defs>
</svg> 